<?xml version="1.0" encoding="UTF-8" standalone="no"?>
<!DOCTYPE svg PUBLIC "-//W3C//DTD SVG 1.1//EN" "http://www.w3.org/Graphics/SVG/1.1/DTD/svg11.dtd">
<svg width="100%" height="100%" viewBox="0 0 751 130" version="1.1" xmlns="http://www.w3.org/2000/svg" xmlns:xlink="http://www.w3.org/1999/xlink" xml:space="preserve" xmlns:serif="http://www.serif.com/" style="fill-rule:evenodd;clip-rule:evenodd;stroke-linejoin:round;stroke-miterlimit:2;">
    <g transform="matrix(1,0,0,1,-168.25,-404.952)">
        <g transform="matrix(0.763196,0,0,0.763196,131.624,57.721)">
            <g transform="matrix(0.653733,0,0,0.653733,5.0817,237.274)">
                <g transform="matrix(0.984,0.17817,-0.17817,0.984,83.9357,-18.6555)">
                    <path d="M216.405,403.506L180.965,447.046C173.675,439.351 167.295,434.423 161.828,432.263C156.36,430.102 151.634,429.596 147.652,430.744C143.669,431.891 140.327,434.254 137.627,437.832C134.927,441.409 132.767,445.055 131.147,448.767C129.527,452.48 128.379,455.822 127.704,458.792C127.029,461.762 126.691,463.247 126.691,463.247C126.691,463.517 126.995,465.272 127.603,468.513C128.21,471.753 129.628,475.364 131.855,479.347C134.083,483.33 137.256,486.266 141.374,488.156C145.491,490.047 151.094,489.777 158.182,487.346C165.27,484.916 174.012,478.908 184.408,469.323L223.898,511.446C221.873,515.361 218.363,519.344 213.367,523.394C208.372,527.444 202.432,531.157 195.546,534.532C188.661,537.907 181.1,540.709 172.865,542.936C164.629,545.164 156.225,546.447 147.652,546.784C139.078,547.122 130.64,546.21 122.337,544.05C114.034,541.89 106.372,538.11 99.352,532.709C89.226,524.879 81.733,516.238 76.873,506.788C72.013,497.337 69.11,487.616 68.165,477.626C67.22,467.635 67.996,457.644 70.494,447.654C72.991,437.663 76.502,428.28 81.024,419.504C85.547,410.729 90.88,402.831 97.023,395.81C103.166,388.79 109.41,383.187 115.756,379.001C115.756,379.001 117.106,378.259 119.806,376.774C122.506,375.289 126.219,373.837 130.944,372.42C135.669,371.002 141.239,369.99 147.652,369.382C154.064,368.774 161.017,369.382 168.51,371.205C176.003,373.027 183.834,376.436 192.002,381.432C200.17,386.427 208.304,393.785 216.405,403.506Z" style="fill:rgb(57,180,70);fill-rule:nonzero;"/>
                </g>
                <g transform="matrix(0.99735,-0.0727568,0.0727568,0.99735,-51.5605,30.4821)">
                    <path d="M302.473,363.205L404.743,518.736L341.154,542.835L324.142,514.483L281.615,515.901L273.311,546.278L212.355,526.432L302.473,363.205ZM292.145,483.701L316.244,479.448L306.119,451.906L292.145,483.701Z" style="fill:rgb(57,180,70);fill-rule:nonzero;"/>
                </g>
                <g transform="matrix(0.991078,0.133279,-0.133279,0.991078,13.956,-61.8312)">
                    <path d="M527.061,380.622L586.196,374.951L579.108,449.274L609.08,447.046L611.51,376.369L669.226,373.534L652.823,529.874L605.839,535.545L608.472,490.992L587.208,494.029L585.183,540.608L534.757,541.62L527.061,380.622Z" style="fill:rgb(57,180,70);fill-rule:nonzero;"/>
                </g>
                <g transform="matrix(0.997144,-0.0755181,0.0755181,0.997144,-71.7596,42.5661)">
                    <path d="M523.416,482.081C523.686,489.777 522.674,496.797 520.378,503.142C518.083,509.488 514.742,515.057 510.354,519.85C505.966,524.643 500.633,528.693 494.355,532.001C488.078,535.308 481.226,537.84 473.8,539.595L473.8,559.846L435.12,561.264L440.385,542.228C432.555,541.553 424.724,540 416.894,537.57C409.063,535.14 401.975,532.372 395.63,529.267L411.021,486.131C413.046,486.941 415.476,487.988 418.311,489.27C421.147,490.553 424.184,491.734 427.425,492.814C430.665,493.894 434.006,494.839 437.449,495.649C440.892,496.459 444.301,496.797 447.676,496.662C452.671,496.392 456.89,495.514 460.333,494.029C463.776,492.544 465.43,490.047 465.295,486.536C465.16,484.241 464.012,482.486 461.852,481.271C459.692,480.056 456.992,478.841 453.751,477.626C451.726,477.086 449.094,476.343 445.853,475.398C442.613,474.453 439.103,473.17 435.323,471.55C431.542,469.93 427.695,467.973 423.779,465.677C419.864,463.382 416.32,460.615 413.147,457.374C409.975,454.134 407.376,450.354 405.351,446.034C403.325,441.713 402.245,436.853 402.11,431.453C401.84,423.757 402.887,416.703 405.249,410.29C407.612,403.877 410.886,398.24 415.071,393.38C419.257,388.52 424.286,384.402 430.159,381.027C436.031,377.651 442.411,375.086 449.296,373.331L449.296,353.485L487.976,352.067L482.913,370.901C488.989,371.306 494.929,372.116 500.735,373.331C506.54,374.546 512.008,376.234 517.138,378.394L505.19,425.175C499.79,422.879 494.862,420.956 490.406,419.403C485.951,417.85 480.753,416.669 474.813,415.859C473.058,415.589 470.763,415.454 467.927,415.454C465.092,415.454 462.257,415.724 459.422,416.264C456.587,416.804 454.156,417.749 452.131,419.099C450.106,420.449 449.026,422.339 448.891,424.77C448.891,425.85 449.397,426.693 450.41,427.301C451.422,427.909 452.638,428.415 454.055,428.82C455.473,429.225 456.958,429.529 458.51,429.731C460.063,429.934 461.244,430.102 462.054,430.237C465.97,431.047 469.041,431.723 471.269,432.263C473.497,432.803 474.61,433.073 474.61,433.073C478.391,433.883 482.036,435.03 485.546,436.515C489.731,438.27 494.018,440.363 498.406,442.793C502.794,445.223 506.776,448.227 510.354,451.805C513.932,455.383 516.936,459.636 519.366,464.564C521.796,469.491 523.146,475.331 523.416,482.081Z" style="fill:rgb(57,180,70);fill-rule:nonzero;"/>
                </g>
            </g>
            <g transform="matrix(1.19113,0,0,1.19113,-172.178,35.4536)">
                <path d="M551.765,438.268L551.765,397.563L517.946,438.268L551.765,438.268ZM551.765,467.43L483.113,467.43L476.633,439.686L550.145,352.2L589.838,352.2L589.838,438.066L617.936,438.066L617.936,467.43L589.838,467.43L589.838,494.972L551.765,494.972L551.765,467.43Z" style="fill:white;fill-rule:nonzero;"/>
            </g>
            <g transform="matrix(1.5008,0,0,1.5008,-427.517,-69.8996)">
                <g transform="matrix(1.1254,0,0,1.1254,-83.6714,-50.8457)">
                    <path d="M687.575,390.096L677.712,391.247L677.712,437.521L654.37,440.397L655.603,393.466L644.753,394.534L645.329,374.315L689.712,370.534L687.575,390.096Z" style="fill:rgb(50,123,255);fill-rule:nonzero;"/>
                </g>
                <g transform="matrix(0.994094,-0.108526,0.108526,0.994094,-44.5364,84.4789)">
                    <path d="M744.699,427.247L731.959,441.63L711.986,426.918L711.74,440.973L691.849,438.918L690.534,374.726C700.945,373.521 708.562,372.685 713.384,372.219C718.205,371.753 720.616,371.521 720.616,371.521C725.767,370.973 730.055,371.356 733.479,372.671C736.904,373.986 739.507,375.89 741.288,378.384C743.068,380.877 744.082,383.781 744.329,387.096C744.575,390.411 744.096,393.808 742.89,397.288C741.685,400.767 739.781,404.151 737.178,407.438C734.575,410.726 731.356,413.575 727.521,415.986L744.699,427.247ZM710.753,393.137L709.932,406.288C711.904,405.849 713.616,405.219 715.068,404.397C716.521,403.575 717.74,402.699 718.726,401.767C719.712,400.836 720.466,399.945 720.986,399.096C721.507,398.247 721.822,397.575 721.932,397.082C721.932,397.027 721.959,396.726 722.014,396.178C722.068,395.63 722,394.973 721.808,394.205C721.616,393.438 721.151,392.795 720.411,392.274C719.671,391.753 718.534,391.507 717,391.534C715.466,391.562 713.384,392.096 710.753,393.137Z" style="fill:rgb(50,123,255);fill-rule:nonzero;"/>
                </g>
                <g transform="matrix(0.981337,0.192298,-0.192298,0.981337,68.0824,-148.163)">
                    <path d="M809.877,372.014L841.274,398.068L842.014,370.863L866.507,372.507L862.726,435.219L831.247,419.521L832.397,438.918L808.808,440.397L809.877,372.014Z" style="fill:rgb(50,123,255);fill-rule:nonzero;"/>
                </g>
                <g transform="matrix(0.50983,0,0,0.50983,409.79,121.851)">
                    <path d="M723,505.75L723,625.457C723,631.828 717.828,637 711.457,637L658.543,637C652.172,637 647,631.828 647,625.457L647,505.75C647,499.379 652.172,494.207 658.543,494.207L711.457,494.207C717.828,494.207 723,499.379 723,505.75ZM685,621.492C681.811,621.492 679.222,624.081 679.222,627.27C679.222,630.459 681.811,633.048 685,633.048C688.189,633.048 690.778,630.459 690.778,627.27C690.778,624.081 688.189,621.492 685,621.492ZM695.293,501.831L674.707,501.831L674.707,503.395L695.293,503.395L695.293,501.831ZM716.42,512.062L653.58,512.062L653.58,617.457L716.42,617.457L716.42,512.062Z" style="fill:rgb(50,123,255);"/>
                </g>
                <g transform="matrix(1,0,0,1,-28.8443,-5.13365)">
                    <path d="M896.425,371.438L893.055,437.932L871.438,440.397L872.26,374.315L896.425,371.438Z" style="fill:rgb(50,123,255);fill-rule:nonzero;"/>
                </g>
                <g transform="matrix(1,0,0,1,-37.114,4.83133)">
                    <path d="M957.822,383.603L943.438,401.274C940.479,398.151 937.89,396.151 935.671,395.274C933.452,394.397 931.534,394.192 929.918,394.658C928.301,395.123 926.945,396.082 925.849,397.534C924.753,398.986 923.877,400.466 923.219,401.973C922.562,403.479 922.096,404.836 921.822,406.041C921.548,407.247 921.411,407.849 921.411,407.849C921.411,407.959 921.534,408.671 921.781,409.986C922.027,411.301 922.603,412.767 923.507,414.384C924.411,416 925.699,417.192 927.37,417.959C929.041,418.726 931.315,418.616 934.192,417.63C937.068,416.644 940.616,414.205 944.836,410.315L960.863,427.411C960.041,429 958.616,430.616 956.589,432.26C954.562,433.904 952.151,435.411 949.356,436.781C946.562,438.151 943.493,439.288 940.151,440.192C936.808,441.096 933.397,441.616 929.918,441.753C926.438,441.89 923.014,441.521 919.644,440.644C916.274,439.767 913.164,438.233 910.315,436.041C906.205,432.863 903.164,429.356 901.192,425.521C899.219,421.685 898.041,417.74 897.658,413.685C897.274,409.63 897.589,405.575 898.603,401.521C899.616,397.466 901.041,393.658 902.877,390.096C904.712,386.534 906.877,383.329 909.37,380.479C911.863,377.63 914.397,375.356 916.973,373.658C916.973,373.658 917.521,373.356 918.616,372.753C919.712,372.151 921.219,371.562 923.137,370.986C925.055,370.411 927.315,370 929.918,369.753C932.521,369.507 935.342,369.753 938.384,370.493C941.425,371.233 944.603,372.616 947.918,374.644C951.233,376.671 954.534,379.658 957.822,383.603Z" style="fill:rgb(50,123,255);fill-rule:nonzero;"/>
                </g>
                <g transform="matrix(0.983541,0.180683,-0.180683,0.983541,48.8946,-165.384)">
                    <path d="M994.973,397.74C996.671,398.507 998.411,399.384 1000.19,400.37C1001.97,401.356 1003.59,402.562 1005.04,403.986C1006.49,405.411 1007.7,407.123 1008.66,409.123C1009.62,411.123 1010.15,413.493 1010.26,416.233C1010.43,420.123 1009.8,423.562 1008.37,426.548C1006.95,429.534 1004.93,432.055 1002.33,434.11C999.726,436.164 996.616,437.753 993,438.877C989.384,440 985.493,440.644 981.329,440.808C979.411,440.863 977.438,440.767 975.411,440.521C973.384,440.274 971.384,439.904 969.411,439.411C967.438,438.918 965.521,438.329 963.658,437.644C961.795,436.959 960.041,436.233 958.397,435.466L964.644,417.877C965.466,418.205 966.452,418.63 967.603,419.151C968.753,419.671 969.986,420.151 971.301,420.589C972.616,421.027 973.986,421.411 975.411,421.74C976.836,422.068 978.233,422.205 979.603,422.151C981.63,422.041 983.342,421.685 984.74,421.082C986.137,420.479 986.808,419.466 986.753,418.041C986.699,417.11 986.219,416.397 985.315,415.904C984.411,415.411 983.329,414.918 982.068,414.425C981.247,414.205 980.164,413.904 978.822,413.521C977.479,413.137 976.041,412.616 974.507,411.959C972.973,411.301 971.425,410.507 969.863,409.575C968.301,408.644 966.877,407.521 965.589,406.205C964.301,404.89 963.233,403.37 962.384,401.644C961.534,399.918 961.082,397.932 961.027,395.685C960.918,391.849 961.575,388.438 963,385.452C964.425,382.466 966.37,379.918 968.836,377.808C971.301,375.699 974.178,374.082 977.466,372.959C980.753,371.836 984.26,371.192 987.986,371.027C991.438,370.863 994.863,371.041 998.26,371.562C1001.66,372.082 1004.84,372.945 1007.8,374.151L1002.95,393.137C1000.75,392.205 998.753,391.425 996.945,390.795C995.137,390.164 993.027,389.685 990.616,389.356C989.904,389.247 988.945,389.192 987.74,389.192C986.589,389.192 985.452,389.315 984.329,389.562C983.205,389.808 982.233,390.205 981.411,390.753C980.589,391.301 980.151,392.068 980.096,393.055C980.096,393.493 980.301,393.836 980.712,394.082C981.123,394.329 981.616,394.521 982.192,394.658C982.767,394.795 983.356,394.904 983.959,394.986C984.562,395.068 985.055,395.137 985.438,395.192C987.027,395.521 988.274,395.795 989.178,396.014C990.082,396.233 990.534,396.342 990.534,396.342C992.068,396.671 993.548,397.137 994.973,397.74Z" style="fill:rgb(50,123,255);fill-rule:nonzero;"/>
                </g>
            </g>
        </g>
    </g>
</svg>
